PathFileType	4	(X/Y/Z)	./resultDataOpenSim/trcMotMarkerGrf/sub06/qtm-14-04.trc
DataRate	CameraRate	NumFrames	NumMarkers	Units	OrigDataRate	OrigDataStartFrame	OrigNumFrames
250.000000	250.000000	12	24	m	250.000000	272	542
Frame#	Time	L.Toe.Tip			R.Toe.Tip			L.Ankle.Lat			R.Ankle.Lat			L.Ankle.Med			R.Ankle.Med			L.Heel			R.Heel			L.Knee.Lat			R.Knee.Lat			L.Knee.Med			R.Knee.Med			L.Thigh.Upper			R.Thigh.Upper			L.ASIS			R.ASIS			V.Sacral			L.Acromium			R.Acromium			C7			L.Elbow			R.Elbow			L.Wrist.Lat			R.Wrist.Lat
		X1	Y1	Z1	X2	Y2	Z2	X3	Y3	Z3	X4	Y4	Z4	X5	Y5	Z5	X6	Y6	Z6	X7	Y7	Z7	X8	Y8	Z8	X9	Y9	Z9	X10	Y10	Z10	X11	Y11	Z11	X12	Y12	Z12	X13	Y13	Z13	X14	Y14	Z14	X15	Y15	Z15	X16	Y16	Z16	X17	Y17	Z17	X18	Y18	Z18	X19	Y19	Z19	X20	Y20	Z20	X21	Y21	Z21	X22	Y22	Z22	X23	Y23	Z23	X24	Y24	Z24

272	1.084	0.038706767	-0.040377802	0.042443095	0.79453387	0.11456283	0.13627749	-0.054606529	0.032260902	-0.014027705	0.65534917	0.11716926	0.1633531	-0.060074674	0.05712096	0.068855002	0.66924556	0.14677254	0.077308801	-0.13683191	0.037706505	0.019452871	0.60964588	0.086882757	0.1010128	0.11555729	0.36465814	-0.044866212	0.55962887	0.49123299	0.18252712	0.097005178	0.38245361	0.076732135	0.54228628	0.47107974	0.059529223	0.20017304	0.73627479	-0.12342156	0.30512007	0.75233569	0.21802663	0.29231164	0.78352241	-0.10351012	0.36813694	0.80233169	0.13520388	0.14405753	0.8743382	0.072216421	0.33184929	1.277886	-0.1298588	0.3122969	1.2436737	0.23021241	0.25002776	1.3073396	0.046712493	0.41595308	0.96369837	-0.21386539	0.12081072	0.99502095	0.27737505	0.6564155	0.97360995	-0.13729458	0.12951838	0.76876542	0.35451094
273	1.088	0.038797155	-0.040364814	0.042464754	0.80105185	0.11244284	0.13425868	-0.053176632	0.03344462	-0.014233532	0.66179123	0.11516376	0.16137465	-0.058230167	0.058373464	0.068643168	0.67575574	0.14488926	0.075400844	-0.13524347	0.040023585	0.019350175	0.61610396	0.084976399	0.098990837	0.12051574	0.36417706	-0.044652059	0.56698352	0.48932053	0.18148356	0.10290249	0.38189364	0.076834989	0.54930747	0.46915762	0.058206774	0.20626541	0.73553086	-0.12291174	0.31328508	0.75141088	0.21789783	0.298886	0.78320011	-0.10306367	0.37592928	0.80153721	0.13490442	0.1488884	0.87425815	0.074208647	0.33884876	1.2771286	-0.12983532	0.31950268	1.2423053	0.23035857	0.25706942	1.3066319	0.04730975	0.42399191	0.96316004	-0.21281673	0.12716876	0.99431114	0.27730219	0.66409789	0.97552281	-0.13574486	0.1347038	0.76833752	0.35509195
274	1.092	0.038881691	-0.040311898	0.042376636	0.80696564	0.10995758	0.13217314	-0.051675238	0.034685221	-0.014432987	0.66756846	0.11298586	0.1594049	-0.056267289	0.059690455	0.068458163	0.68171759	0.14276797	0.07347998	-0.13352129	0.042430096	0.019221571	0.62194369	0.08287801	0.096982183	0.12563208	0.36367181	-0.044476521	0.57426996	0.48738549	0.18039849	0.10887282	0.38133	0.076931468	0.55633424	0.46727298	0.056907773	0.21243961	0.73479079	-0.12241441	0.32156198	0.7505619	0.21777129	0.30553409	0.78283458	-0.10269906	0.38378903	0.80071136	0.13454557	0.15734009	0.87253108	0.074676169	0.34586637	1.2763999	-0.12979323	0.32675121	1.2409348	0.23052067	0.26409342	1.3059836	0.048024497	0.43199889	0.96264442	-0.21173687	0.13359995	0.9935547	0.27724372	0.67172176	0.97729156	-0.13421182	0.13999349	0.767864	0.35562939
275	1.096	0.038953896	-0.040240031	0.042232438	0.81230056	0.1071303	0.13002942	-0.050083936	0.035960653	-0.014666628	0.67275089	0.11060948	0.1574447	-0.054178874	0.061045397	0.068258986	0.68713187	0.14037695	0.071589509	-0.13165603	0.044901396	0.019051589	0.62718541	0.080575563	0.095015541	0.13098958	0.36313882	-0.044402427	0.58147214	0.4854103	0.17927407	0.11488482	0.38078581	0.07703008	0.56335591	0.46541922	0.055635803	0.2187079	0.73405637	-0.12192278	0.32993045	0.74978205	0.21763308	0.31224655	0.78237375	-0.10247401	0.39172616	0.79985556	0.13412503	0.16933406	0.8692782	0.073770312	0.35290203	1.2757015	-0.12972904	0.33403537	1.2395654	0.23069593	0.27120856	1.3053117	0.048674204	0.43996771	0.96213405	-0.21064666	0.14014431	0.99276749	0.27721024	0.67928445	0.97891927	-0.13269652	0.14528578	0.767338	0.35610993
276	1.1	0.039030949	-0.040178368	0.042105687	0.81708813	0.1039886	0.12784077	-0.048385627	0.03725932	-0.014940892	0.67744531	0.10798878	0.15548724	-0.052009259	0.062394194	0.06800367	0.69201034	0.13769636	0.06975563	-0.12965717	0.047432927	0.018881091	0.63184967	0.078080118	0.093102836	0.13658817	0.36257648	-0.044449414	0.58858142	0.4833759	0.17811781	0.12099378	0.38021056	0.077140983	0.57032292	0.46357645	0.054383557	0.22507853	0.73331834	-0.12143882	0.33841862	0.74909767	0.21749029	0.31901925	0.78176201	-0.10245196	0.39974783	0.79897274	0.1336473	0.18236346	0.86572103	0.072514967	0.35996239	1.2750302	-0.12963221	0.34135702	1.2381966	0.23088415	0.27845397	1.304577	0.049204746	0.44789342	0.961611	-0.20956359	0.14683087	0.9919583	0.27721184	0.68678259	0.98040502	-0.13120195	0.15066202	0.76676152	0.35652878
277	1.104	0.039140965	-0.04012982	0.04202788	0.82136909	0.10055514	0.12561381	-0.046570385	0.03857718	-0.015233456	0.68171198	0.10511479	0.15353788	-0.049788643	0.063713174	0.067682137	0.69639032	0.1347555	0.067968403	-0.12752412	0.050035659	0.018750581	0.63594918	0.075416214	0.091246313	0.14238622	0.36197879	-0.044595009	0.59558316	0.4812639	0.17694181	0.12727694	0.37953157	0.077264106	0.57718187	0.46172713	0.053149419	0.23154568	0.73257218	-0.12097398	0.34706645	0.74853791	0.21735663	0.32588799	0.78095266	-0.10269368	0.40784298	0.79806172	0.13311119	0.19379531	0.86308975	0.07173091	0.36705897	1.2743806	-0.12949186	0.3487255	1.2368288	0.23108949	0.28580577	1.3037962	0.04966673	0.45577137	0.96105537	-0.20849881	0.15365504	0.9911281	0.27724791	0.69421595	0.98174565	-0.12972794	0.15631072	0.7661442	0.35689457
278	1.108	0.039295565	-0.040080012	0.041981776	0.82519299	0.096843777	0.12335139	-0.044636573	0.039907914	-0.015522476	0.68556751	0.102014	0.15161216	-0.04746706	0.065027443	0.067319446	0.70032704	0.13161966	0.066196836	-0.12524525	0.052719219	0.018670725	0.63950394	0.072594862	0.089458834	0.14835367	0.36133891	-0.044816587	0.60243807	0.47905878	0.17575105	0.13377929	0.37872496	0.077359693	0.58389257	0.4598571	0.051927928	0.23809867	0.73182139	-0.12053997	0.35583218	0.74807806	0.21720233	0.3329737	0.77993716	-0.10323074	0.41598833	0.7971226	0.13251007	0.20288476	0.86169083	0.07142623	0.37420126	1.2737482	-0.12930168	0.35614373	1.2354675	0.23131518	0.29323121	1.3029945	0.050117976	0.46359706	0.96044798	-0.20745796	0.16058982	0.99028148	0.27730551	0.70159111	0.98294397	-0.12826861	0.16232647	0.76549228	0.35721693
279	1.112	0.039485614	-0.040022218	0.041942592	0.8286137	0.092860771	0.12106127	-0.042584758	0.041246473	-0.015803524	0.68905682	0.098700874	0.14971749	-0.044975853	0.066373035	0.066937787	0.70386723	0.12832345	0.064426901	-0.12281324	0.05548052	0.01862952	0.64258954	0.069591141	0.087757791	0.1544714	0.36065468	-0.045112678	0.60909246	0.476741	0.17452381	0.14053118	0.37781959	0.077337124	0.59042078	0.45794232	0.050710079	0.24473475	0.73106759	-0.12014357	0.36460314	0.7476547	0.21695764	0.3404655	0.77877202	-0.10402905	0.42417314	0.79616228	0.13184436	0.21040387	0.86110202	0.071195768	0.38139032	1.2731323	-0.12905346	0.36360597	1.2341175	0.23156163	0.30071441	1.3021816	0.050584193	0.47136403	0.95978116	-0.20645308	0.16760848	0.98942562	0.2773678	0.70891878	0.98400975	-0.12681677	0.16862657	0.76480267	0.35749529
280	1.116	0.039695806	-0.039963164	0.041907948	0.83168134	0.08861053	0.11875706	-0.040414368	0.042597041	-0.016096539	0.69226907	0.095155124	0.1478466	-0.042301345	0.067748561	0.066529969	0.70704716	0.12484685	0.062663414	-0.12023127	0.058304519	0.018601636	0.64531739	0.06636787	0.086151772	0.16072387	0.35992447	-0.045487008	0.61552796	0.47428119	0.1732124	0.1475453	0.3768597	0.077111185	0.59673465	0.45594285	0.049494316	0.25145603	0.73030624	-0.11978496	0.37330731	0.74722548	0.21657915	0.34846449	0.77756705	-0.10497111	0.43240689	0.79519354	0.13112373	0.21731743	0.86077965	0.070945716	0.38862129	1.2725333	-0.12873835	0.37110819	1.2327795	0.23182812	0.30825061	1.3013545	0.051068244	0.47905814	0.95907601	-0.2055325	0.174699	0.98856053	0.27742497	0.7162045	0.9849488	-0.12537212	0.17504857	0.76406739	0.3577211
281	1.12	0.039916243	-0.039914471	0.041888074	0.83443515	0.084104455	0.11645686	-0.038128341	0.043969009	-0.01643308	0.69527855	0.091349911	0.14599462	-0.039454539	0.069127411	0.066078294	0.70990941	0.12114857	0.0609073	-0.11750234	0.061176406	0.018561609	0.64775331	0.062916019	0.084640122	0.16711075	0.35914211	-0.045935083	0.62178992	0.47165312	0.17179426	0.15478855	0.37585925	0.076687652	0.60281164	0.45381638	0.048285013	0.25826052	0.72952999	-0.119461	0.38195772	0.74677955	0.21608019	0.3567827	0.77643753	-0.10587289	0.4407022	0.7942301	0.13035621	0.22428135	0.86032289	0.07098773	0.39589342	1.2719495	-0.12835899	0.3786524	1.2314564	0.23211407	0.31583547	1.3005055	0.051567125	0.48665224	0.95838493	-0.20481488	0.18186358	0.98768327	0.27747523	0.72344485	0.98575383	-0.12394213	0.18151206	0.76328193	0.35788872
282	1.124	0.040148432	-0.039878264	0.041877594	0.83690129	0.079357857	0.11418082	-0.035733902	0.045364615	-0.016828403	0.69808568	0.087295899	0.14418174	-0.036424994	0.070495789	0.065579594	0.71248989	0.11720467	0.059171737	-0.11461406	0.06409397	0.018500771	0.64996224	0.059236123	0.083184934	0.17364747	0.35829864	-0.046450791	0.62795462	0.46885836	0.17031723	0.16220099	0.37477828	0.076170754	0.60863866	0.45152906	0.047082822	0.2651408	0.72873057	-0.11916474	0.39057982	0.74630554	0.21548314	0.36491284	0.77546592	-0.10652245	0.44905976	0.79327708	0.12953942	0.23159832	0.85959033	0.071560862	0.40320879	1.2713789	-0.12792888	0.38624652	1.2301556	0.23242221	0.32346187	1.299631	0.052087809	0.49411475	0.95775415	-0.20446022	0.18911019	0.98679619	0.27751718	0.73063413	0.98640847	-0.12253575	0.18806075	0.76244946	0.358001
283	1.128	0.040404581	-0.039842903	0.041852943	0.83909056	0.074370281	0.11194423	-0.033235391	0.046774857	-0.017273861	0.70063128	0.083023958	0.14245329	-0.033186547	0.071859719	0.065041537	0.71480025	0.11302376	0.057517286	-0.11154104	0.067066516	0.018425399	0.65207462	0.055292204	0.081719178	0.18035175	0.35738725	-0.047035465	0.63406708	0.46592276	0.16884969	0.16974351	0.37356013	0.075662025	0.61420223	0.44904876	0.045877269	0.27209199	0.72789854	-0.11888207	0.3991809	0.74578923	0.21479362	0.37224317	0.77468634	-0.10673596	0.45748108	0.79233079	0.12866968	0.23927323	0.85868803	0.072499354	0.41056155	1.2708173	-0.12745857	0.39390129	1.2288826	0.23275537	0.33112123	1.298734	0.052645286	0.50143768	0.95717461	-0.20453524	0.19644515	0.98590364	0.27754402	0.73777189	0.98690451	-0.1211568	0.19476721	0.76157873	0.35806452
